<svg width="224" height="212" viewBox="0 0 224 212" fill="none" xmlns="http://www.w3.org/2000/svg">
<path fill-rule="evenodd" clip-rule="evenodd" d="M111.776 1C173.302 1 223.179 47.9563 223.179 105.879C223.179 163.801 173.302 210.757 111.776 210.757C50.2507 210.757 0.374756 163.801 0.374756 105.879C0.374756 47.9563 50.2507 1 111.776 1Z" fill="#F8BD01" stroke="#F8BD01" stroke-width="0.755906" stroke-miterlimit="22.9256"/>
<path d="M96.3232 100.074C101.861 86.9065 107.428 73.6536 113.084 60.3396C115.099 55.6027 116.852 51.6761 118.346 48.482C119.842 45.2872 121.365 42.6899 122.918 40.6597C124.471 38.6014 126.139 37.0861 127.893 36.0573C129.647 35.0295 131.833 34.2971 134.477 33.8645C137.122 33.4045 140.314 33.27 144.024 33.3787C147.734 33.5132 152.247 33.7026 157.511 33.9458C160.759 33.9458 163.26 34.5958 165.043 35.8673C166.797 37.1399 168.206 39.0615 169.299 41.6078C177.005 60.3395 184.74 78.8819 192.532 97.2903C194.697 102.404 219.485 154.908 216.527 159.617C215.554 161.187 212.574 161.999 207.589 161.999C204.054 162.134 200.491 162.161 196.898 162.081C193.278 162.027 189.714 162.053 186.179 162.189C182.363 162.432 179.467 161.729 177.436 160.077C175.264 158.314 172.492 153.389 171.225 150.7C169.387 146.883 167.056 141.468 164.209 134.457C158.072 119.487 151.754 104.595 145.749 89.575C145.491 89.8193 145.002 90.5758 144.341 91.8496C137.998 103.547 133.011 117.034 128.094 129.207C124.989 136.921 121.999 144.718 119.152 152.623C119.022 152.942 118.889 153.252 118.751 153.556C121.39 159.818 129.584 172.224 115.863 172.224C115.459 172.468 115.055 172.55 114.651 172.414C114.247 172.278 113.9 172.224 113.641 172.224C105.616 172.36 99.4392 172.278 95.0797 172.033C90.7512 171.762 87.2577 170.784 84.6018 169.044C82.4333 167.646 80.5346 165.541 78.9209 162.715H78.9221C78.8465 162.604 78.7774 162.492 78.7155 162.383C77.6161 160.445 76.5251 158.371 75.6418 156.21C73.0311 149.811 70.1751 142.95 67.1066 135.616C66.8388 136.008 66.4823 136.618 66.0519 137.443C65.3632 138.717 64.6144 140.232 63.8091 141.937C63.0031 143.669 62.1424 145.401 61.2799 147.19C60.3882 148.976 59.7549 150.437 59.3525 151.602C56.396 158.67 52.8049 172.006 47.402 176.256C45.3038 177.907 42.3139 178.61 38.3734 178.367C34.7223 178.231 31.0419 178.205 27.3032 178.259C23.5937 178.34 19.9134 178.312 16.2623 178.177C13.6129 178.177 11.5116 177.963 9.95927 177.54H9.9581L9.95752 177.539C8.49503 177.14 7.52001 176.558 7.03192 175.796C3.82776 170.853 32.1729 112.11 34.7967 105.935C36.8092 101.196 38.5627 97.2706 40.0592 94.0765C41.5538 90.8829 43.0782 88.2855 44.6311 86.2542C46.1841 84.1965 47.8502 82.6795 49.6056 81.6524C51.3603 80.6229 53.5442 79.8922 56.1901 79.4596C58.8359 78.999 62.0269 78.8628 65.7364 78.9715C69.4465 79.1066 73.9596 79.2971 79.2221 79.5409C82.4697 79.5409 84.9732 80.1903 86.7542 81.4624C88.5083 82.7345 89.9191 84.6566 91.0119 87.2007C92.7803 91.5021 94.5506 95.7918 96.3232 100.074Z" fill="black"/>
</svg>
