<svg width="131" height="65" viewBox="0 0 131 65" fill="none" xmlns="http://www.w3.org/2000/svg">
<path d="M18.7033 37.5562C19.1688 37.544 19.5164 37.6294 19.7492 37.8154C19.9819 38.0014 20.0966 38.3093 20.0966 38.7425V51.1386C20.0966 51.4405 20.0233 51.6723 19.8735 51.8277C19.7236 51.9863 19.4685 52.0656 19.1082 52.0656C18.6268 52.0381 18.139 52.0199 17.6448 52.0107C17.1505 52.0046 16.6468 52.0229 16.1367 52.0656C15.7158 52.0779 15.4352 51.9955 15.2916 51.8156C15.1514 51.6386 15.0877 51.3765 15.1004 51.0318V46.0399C14.7402 46.3387 14.4723 46.6528 14.2905 46.9761C14.112 47.2962 13.9398 47.6012 13.774 47.8909C13.4743 48.391 13.181 48.882 12.8972 49.3638C12.6102 49.8456 12.3552 50.3366 12.1319 50.8397C11.8897 51.3276 11.5931 51.657 11.2424 51.8277C10.8885 51.9986 10.4421 52.0839 9.90328 52.0839C9.33248 52.1113 8.88291 52.026 8.55135 51.8247C8.22293 51.6234 7.94554 51.2941 7.71919 50.8367C7.3589 50.0743 6.97944 49.3211 6.58413 48.574C6.18551 47.8298 5.66261 47.1194 5.01857 46.4455C5.01857 47.1773 5.01535 47.9 5.00586 48.6197C4.99941 49.3363 5.01213 50.0621 5.04087 50.7939C5.06961 51.2514 4.99619 51.5899 4.81452 51.8033C4.63598 52.0199 4.27568 52.1113 3.73685 52.0839C2.85043 52.0107 1.98004 52.0107 1.12549 52.0839C0.675926 52.1113 0.373023 52.0321 0.223138 51.837C0.0733423 51.6448 7.62939e-06 51.3613 7.62939e-06 50.9891C0.0159453 48.9948 0.0190819 47.0188 0.00959091 45.0579C0.00314423 43.1001 7.62939e-06 41.1302 7.62939e-06 39.151C7.62939e-06 38.7912 0.0190817 38.5077 0.0541803 38.3003C0.0924127 38.0929 0.1721 37.9343 0.293334 37.8276C0.411344 37.7178 0.583526 37.6477 0.809786 37.6111C1.03623 37.5745 1.33591 37.5562 1.70892 37.5562C2.34025 37.5562 2.96199 37.5653 3.57738 37.5775C4.19268 37.5927 4.80807 37.5867 5.42355 37.5562C5.84437 37.5288 6.18238 37.5927 6.43738 37.7513C6.69256 37.9098 6.90288 38.1539 7.06557 38.4832C7.57575 39.4011 8.08585 40.3129 8.59594 41.2155C9.10612 42.1212 9.62589 43.0239 10.1488 43.9296C10.3751 43.9296 10.5186 43.8655 10.576 43.7344C10.6366 43.6064 10.7068 43.4691 10.78 43.3258C11.2296 42.5085 11.6728 41.6822 12.1064 40.8496C12.5433 40.0172 12.9769 39.1938 13.4137 38.3765C13.5795 38.0746 13.7676 37.858 13.9748 37.7299C14.1853 37.5988 14.485 37.544 14.8772 37.5562C16.1367 37.5988 17.412 37.5988 18.7033 37.5562Z" fill="white"/>
<path d="M28.4736 37.1902C29.5863 37.1902 30.6322 37.3915 31.6142 37.7941C32.5962 38.1935 33.4571 38.7485 34.1904 39.4499C34.927 40.1543 35.5072 40.9716 35.9346 41.9047C36.365 42.8379 36.5786 43.8259 36.5786 44.8749C36.5786 45.9514 36.3682 46.9608 35.9473 47.9C35.5264 48.8392 34.9525 49.6565 34.2256 50.3518C33.4987 51.0501 32.6441 51.596 31.6588 51.9894C30.6769 52.3827 29.6215 52.5749 28.4959 52.5596C27.4022 52.5596 26.3787 52.3553 25.4254 51.9467C24.4721 51.538 23.64 50.98 22.9257 50.2787C22.2147 49.5742 21.6567 48.7539 21.2518 47.8146C20.8469 46.8723 20.6428 45.866 20.6428 44.7895C20.6428 43.6978 20.8405 42.6885 21.239 41.7644C21.6377 40.8374 22.1828 40.0385 22.8812 39.3645C23.5794 38.6906 24.4052 38.1599 25.3586 37.7727C26.3119 37.3854 27.3513 37.1902 28.4736 37.1902ZM28.4704 48.2416C28.9232 48.2416 29.3473 48.1531 29.7426 47.9732C30.1412 47.7933 30.4887 47.5494 30.7885 47.2413C31.0913 46.9364 31.3273 46.5766 31.4995 46.1679C31.6716 45.7592 31.7577 45.3263 31.7577 44.8688C31.7577 44.3809 31.6748 43.9296 31.509 43.5148C31.3464 43.1001 31.12 42.7433 30.8363 42.4414C30.5492 42.1395 30.2081 41.9047 29.8096 41.734C29.4141 41.5601 28.9902 41.4686 28.5406 41.4533C28.075 41.4533 27.6414 41.5418 27.246 41.7218C26.8476 41.9017 26.5 42.1487 26.1971 42.4628C25.8973 42.7769 25.6646 43.1459 25.502 43.5697C25.3362 43.9906 25.2533 44.448 25.2533 44.9329C25.2533 45.3781 25.3426 45.7989 25.5243 46.2015C25.7029 46.601 25.9388 46.9516 26.2322 47.2536C26.5255 47.5555 26.8635 47.7933 27.246 47.9732C27.6287 48.1531 28.0368 48.2416 28.4704 48.2416Z" fill="white"/>
<path d="M51.8329 37.5745C52.5535 37.5318 52.9138 37.8246 52.9138 38.4558C52.9584 42.722 52.9584 46.9486 52.9138 51.1386C52.9138 51.7576 52.5853 52.0656 51.9221 52.0656C50.4969 52.0229 49.0813 52.0229 47.6688 52.0656C47.2798 52.0809 46.9896 51.9802 46.8047 51.7638C46.6166 51.5503 46.4476 51.3124 46.2978 51.0532C45.7716 50.2939 45.252 49.5377 44.7322 48.7844C44.2157 48.0312 43.6928 47.2657 43.17 46.4912C42.9882 46.2472 42.7044 46.046 42.3122 45.8873C42.3122 46.7352 42.3027 47.5707 42.2803 48.3971C42.258 49.2205 42.2675 50.0439 42.3122 50.8611C42.3441 51.3613 42.258 51.6966 42.054 51.8613C41.8531 52.026 41.5119 52.0931 41.0305 52.0656C40.1313 51.9802 39.2514 51.9802 38.3968 52.0656C37.6762 52.0809 37.3159 51.7576 37.3159 51.0959C37.2712 46.9638 37.2712 42.8257 37.3159 38.6783C37.3159 38.2911 37.4243 37.9983 37.6443 37.7971C37.8611 37.5958 38.1864 37.5104 38.6232 37.5379H38.7571C39.5382 37.5226 40.1951 37.5165 40.7276 37.5165C41.26 37.5165 41.7192 37.5501 42.1114 37.6142C42.5003 37.6782 42.8383 37.7818 43.1221 37.9252C43.409 38.0684 43.6864 38.2759 43.9574 38.5503C44.2253 38.8217 44.5091 39.1663 44.7993 39.584C45.0926 39.9987 45.4432 40.5172 45.8482 41.1332C46.132 41.548 46.422 41.9627 46.7122 42.3713C47.0055 42.7799 47.2957 43.1855 47.5795 43.588C47.7007 43.588 47.79 43.5575 47.8505 43.4996C47.8505 42.6823 47.8537 41.8803 47.8601 41.0905C47.8697 40.3007 47.8665 39.4956 47.8505 38.6783C47.8505 38.2759 47.9367 37.9801 48.1087 37.7849C48.2809 37.5927 48.6061 37.5104 49.0877 37.5379C49.5532 37.5623 50.0154 37.5775 50.4714 37.5867C50.9305 37.5927 51.3833 37.5897 51.8329 37.5745Z" fill="white"/>
<path d="M66.2961 37.5927C66.8063 37.5349 67.1666 37.608 67.377 37.8093C67.5874 38.0075 67.7149 38.288 67.7596 38.6479C67.8042 39.0047 67.8042 39.4072 67.7596 39.8524C67.7149 40.2976 67.6927 40.7338 67.6927 41.1637C67.6927 41.4381 67.6097 41.6029 67.4439 41.6608C67.2781 41.7187 67.0773 41.7461 66.8349 41.7461H63.3468C63.2416 42.3103 63.2064 42.8561 63.2352 43.3807C63.2639 43.9053 63.2639 44.4175 63.2352 44.9176C63.2352 45.9392 63.2352 46.9364 63.2352 47.9122C63.2352 48.8881 63.2511 49.8761 63.2798 50.8824C63.2798 51.3124 63.1905 51.6265 63.0088 51.8277C62.8303 52.029 62.4859 52.1143 61.9757 52.087C61.4943 52.0595 61.0416 52.0474 60.6143 52.0534C60.1839 52.0626 59.7757 52.0717 59.3868 52.087C58.9053 52.1023 58.5801 52.0107 58.4079 51.8186C58.2358 51.6234 58.1624 51.3185 58.1943 50.9038C58.1943 49.5682 58.1847 48.2385 58.172 46.9089C58.1561 45.5824 58.1496 44.2437 58.1496 42.8959C58.1496 42.722 58.1592 42.5451 58.1815 42.356C58.2039 42.17 58.1561 41.9902 58.0348 41.8194C57.5853 41.8194 57.1357 41.8163 56.6861 41.8071C56.2366 41.801 55.7774 41.8041 55.3119 41.8194C54.907 41.8468 54.6073 41.7858 54.4128 41.6364C54.2183 41.4838 54.1035 41.2003 54.0749 40.7856C54.0461 39.9928 54.0398 39.3798 54.0621 38.9406C54.0876 38.5015 54.2056 38.1844 54.4224 37.9922C54.6424 37.7971 54.9835 37.6812 55.449 37.6477C55.9114 37.6111 56.5874 37.5927 57.4737 37.5927H66.2961Z" fill="white"/>
<path d="M69.8496 52.0443C69.4447 52.029 69.0366 52.026 68.6221 52.0321C68.2108 52.0412 67.8027 52.0381 67.3977 52.0229C66.827 52.0229 66.4859 51.9314 66.3742 51.7546C66.2595 51.5747 66.3233 51.2117 66.5656 50.6659C67.2702 48.9735 67.9685 47.2902 68.6572 45.619C69.3491 43.9479 70.0442 42.2646 70.7521 40.5721C70.9752 40.0385 71.1697 39.5963 71.3355 39.2364C71.5013 38.8767 71.6703 38.5839 71.8424 38.3551C72.0146 38.1234 72.1995 37.9526 72.394 37.8367C72.5886 37.7208 72.8309 37.6385 73.1242 37.5897C73.4175 37.5378 73.7714 37.5226 74.1828 37.5348C74.594 37.5501 75.0947 37.5714 75.6781 37.5988C76.0383 37.5988 76.3158 37.672 76.5135 37.8154C76.708 37.9587 76.8642 38.1752 76.9855 38.4619C77.8399 40.5721 78.6976 42.6611 79.5616 44.7347C80.4257 46.8084 81.2834 48.8941 82.1379 50.9891C82.4376 51.6936 82.1921 52.0443 81.395 52.0443C81.3503 52.0717 81.3057 52.0809 81.261 52.0656C81.2164 52.0504 81.1782 52.0443 81.1495 52.0443C80.2631 52.0595 79.5808 52.0504 79.0993 52.0229C78.621 51.9924 78.2352 51.8827 77.9419 51.6875C77.6486 51.4954 77.3998 51.1843 77.199 50.7513C76.995 50.3213 76.7367 49.7114 76.421 48.9216C76.1085 48.147 75.7674 47.3114 75.3975 46.4149C75.0309 45.5185 74.6897 44.6676 74.374 43.8655C74.3454 43.893 74.2912 43.9784 74.2179 44.1217C74.1413 44.265 74.0584 44.4359 73.9691 44.6279C73.8799 44.8231 73.7842 45.0183 73.6885 45.2195C73.5898 45.4208 73.5196 45.5854 73.4749 45.7166C73.1147 46.5918 72.7607 47.464 72.4164 48.33C72.072 49.1992 71.7404 50.0773 71.4247 50.9678C71.2749 51.3399 71.0836 51.6204 70.8508 51.8065C70.6181 51.9924 70.2865 52.0717 69.8496 52.0443Z" fill="#F5BD04"/>
<path d="M97.5101 37.5745C98.2306 37.5318 98.5909 37.8246 98.5909 38.4558C98.6356 42.722 98.6356 46.9486 98.5909 51.1386C98.5909 51.7576 98.2625 52.0656 97.5993 52.0656C96.174 52.0229 94.7584 52.0229 93.346 52.0656C92.957 52.0809 92.6668 51.9802 92.4819 51.7638C92.2938 51.5503 92.1248 51.3124 91.975 51.0532C91.4489 50.2939 90.9291 49.5377 90.4094 48.7844C89.8928 48.0312 89.37 47.2657 88.8471 46.4912C88.6653 46.2472 88.3816 46.046 87.9894 45.8873C87.9894 46.7352 87.9798 47.5707 87.9575 48.3971C87.9352 49.2205 87.9447 50.0439 87.9894 50.8611C88.0213 51.3613 87.9352 51.6966 87.7311 51.8613C87.5303 52.026 87.1891 52.0931 86.7076 52.0656C85.8085 51.9802 84.9285 51.9802 84.074 52.0656C83.3535 52.0809 82.9931 51.7576 82.9931 51.0959C82.9484 46.9638 82.9484 42.8257 82.9931 38.6783C82.9931 38.2911 83.1015 37.9983 83.3216 37.7971C83.5384 37.5958 83.8636 37.5104 84.3004 37.5379H84.4343C85.2155 37.5226 85.8722 37.5165 86.4047 37.5165C86.9373 37.5165 87.3963 37.5501 87.7886 37.6142C88.1775 37.6782 88.5155 37.7818 88.7993 37.9252C89.0862 38.0684 89.3636 38.2759 89.6347 38.5503C89.9025 38.8217 90.1862 39.1663 90.4764 39.584C90.7697 39.9987 91.1205 40.5172 91.5254 41.1332C91.8092 41.548 92.0993 41.9627 92.3894 42.3713C92.6827 42.7799 92.9729 43.1855 93.2566 43.588C93.3779 43.588 93.4671 43.5575 93.5278 43.4996C93.5278 42.6823 93.5309 41.8803 93.5372 41.0905C93.5468 40.3007 93.5437 39.4956 93.5278 38.6783C93.5278 38.2759 93.6138 37.9801 93.7859 37.7849C93.9582 37.5927 94.2834 37.5104 94.7649 37.5379C95.2304 37.5623 95.6926 37.5775 96.1486 37.5867C96.6077 37.5927 97.0605 37.5897 97.5101 37.5745Z" fill="#F5BD04"/>
<path d="M122.707 37.5745C123.428 37.5318 123.788 37.8246 123.788 38.4558C123.833 42.722 123.833 46.9486 123.788 51.1386C123.788 51.7576 123.46 52.0656 122.796 52.0656C121.371 52.0229 119.956 52.0229 118.543 52.0656C118.154 52.0809 117.864 51.9802 117.679 51.7638C117.491 51.5503 117.322 51.3124 117.172 51.0532C116.646 50.2939 116.126 49.5377 115.607 48.7844C115.09 48.0312 114.567 47.2657 114.044 46.4912C113.862 46.2472 113.579 46.046 113.187 45.8873C113.187 46.7352 113.177 47.5707 113.155 48.3971C113.132 49.2205 113.142 50.0439 113.187 50.8611C113.218 51.3613 113.132 51.6966 112.928 51.8613C112.727 52.026 112.386 52.0931 111.905 52.0656C111.006 51.9802 110.126 51.9802 109.271 52.0656C108.551 52.0809 108.19 51.7576 108.19 51.0959C108.146 46.9638 108.146 42.8257 108.19 38.6783C108.19 38.2911 108.299 37.9983 108.519 37.7971C108.735 37.5958 109.061 37.5104 109.498 37.5379H109.631C110.413 37.5226 111.069 37.5165 111.602 37.5165C112.134 37.5165 112.593 37.5501 112.986 37.6142C113.375 37.6782 113.713 37.7818 113.996 37.9252C114.283 38.0684 114.561 38.2759 114.832 38.5503C115.1 38.8217 115.383 39.1663 115.674 39.584C115.967 39.9987 116.318 40.5172 116.723 41.1332C117.006 41.548 117.296 41.9627 117.587 42.3713C117.88 42.7799 118.17 43.1855 118.454 43.588C118.575 43.588 118.664 43.5575 118.725 43.4996C118.725 42.6823 118.728 41.8803 118.734 41.0905C118.744 40.3007 118.741 39.4956 118.725 38.6783C118.725 38.2759 118.811 37.9801 118.983 37.7849C119.155 37.5927 119.48 37.5104 119.962 37.5379C120.428 37.5623 120.89 37.5775 121.346 37.5867C121.805 37.5927 122.258 37.5897 122.707 37.5745Z" fill="#F5BD04"/>
<path fill-rule="evenodd" clip-rule="evenodd" d="M102.018 37.4931H104.28C104.942 37.4931 105.484 38.0115 105.484 38.6453V50.749C105.484 51.3826 104.942 51.9011 104.28 51.9011H102.018C101.355 51.9011 100.813 51.3826 100.813 50.749V38.6453C100.813 38.0115 101.355 37.4931 102.018 37.4931Z" fill="#F5BD04"/>
<path fill-rule="evenodd" clip-rule="evenodd" d="M127.034 37.5505H129.295C129.958 37.5505 130.5 38.069 130.5 38.7027V50.8063C130.5 51.44 129.958 51.9586 129.295 51.9586H127.034C126.371 51.9586 125.829 51.44 125.829 50.8063V38.7027C125.829 38.069 126.371 37.5505 127.034 37.5505Z" fill="#F5BD04"/>
<path fill-rule="evenodd" clip-rule="evenodd" d="M65.25 1C74.5049 1 82.0075 8.17573 82.0075 17.0272C82.0075 25.8789 74.5049 33.0545 65.25 33.0545C55.9952 33.0545 48.4927 25.8789 48.4927 17.0272C48.4927 8.17573 55.9952 1 65.25 1Z" fill="#F8BD01" stroke="#F8BD01" stroke-width="0.188976" stroke-miterlimit="22.9256"/>
<path d="M62.9255 16.1402C63.7585 14.128 64.5959 12.1027 65.4468 10.0681C65.7498 9.34423 66.0136 8.74418 66.2382 8.25606C66.4633 7.76785 66.6925 7.37093 66.9261 7.06067C67.1596 6.74614 67.4105 6.51458 67.6744 6.35735C67.9382 6.2003 68.2671 6.08837 68.6647 6.02226C69.0627 5.95196 69.5428 5.9314 70.1009 5.94802C70.6589 5.96857 71.3378 5.99752 72.1296 6.03468C72.6181 6.03468 72.9944 6.13401 73.2626 6.32832C73.5265 6.52279 73.7383 6.81644 73.9028 7.20557C75.0619 10.0681 76.2255 12.9017 77.3976 15.7148C77.7233 16.4963 81.4519 24.5198 81.007 25.2394C80.8607 25.4794 80.4123 25.6035 79.6626 25.6035C79.1308 25.624 78.5947 25.6282 78.0544 25.6159C77.5098 25.6076 76.9737 25.6116 76.4419 25.6324C75.868 25.6696 75.4324 25.5621 75.1269 25.3097C74.8001 25.0402 74.3832 24.2876 74.1925 23.8768C73.9161 23.2934 73.5653 22.4659 73.1372 21.3946C72.214 19.1068 71.2637 16.8311 70.3603 14.5358C70.3215 14.5731 70.2479 14.6887 70.1485 14.8834C69.1944 16.6709 68.4442 18.732 67.7047 20.5922C67.2376 21.771 66.7878 22.9625 66.3595 24.1705C66.3399 24.2193 66.3199 24.2667 66.2992 24.3131C66.6961 25.2701 67.9288 27.166 65.8648 27.166C65.804 27.2033 65.7433 27.2158 65.6825 27.195C65.6217 27.1743 65.5696 27.166 65.5305 27.166C64.3234 27.1867 63.3943 27.1743 62.7385 27.1368C62.0874 27.0953 61.5619 26.9459 61.1624 26.6801C60.8362 26.4664 60.5506 26.1448 60.3078 25.7128H60.308C60.2966 25.6959 60.2862 25.6788 60.2769 25.662C60.1116 25.3659 59.9474 25.049 59.8146 24.7188C59.4219 23.7409 58.9922 22.6925 58.5307 21.5717C58.4904 21.6316 58.4368 21.7247 58.372 21.8508C58.2684 22.0456 58.1558 22.277 58.0347 22.5375C57.9134 22.8023 57.7839 23.067 57.6542 23.3403C57.5201 23.6132 57.4248 23.8365 57.3643 24.0146C56.9196 25.0947 56.3794 27.1327 55.5666 27.7821C55.251 28.0344 54.8013 28.1419 54.2085 28.1048C53.6593 28.084 53.1057 28.08 52.5433 28.0882C51.9853 28.1006 51.4317 28.0964 50.8825 28.0757C50.484 28.0757 50.1679 28.0429 49.9344 27.9783H49.9342L49.9341 27.9782C49.7141 27.9172 49.5675 27.8283 49.494 27.7118C49.0121 26.9565 53.2758 17.9795 53.6705 17.0358C53.9732 16.3117 54.237 15.7118 54.4621 15.2237C54.6869 14.7356 54.9162 14.3387 55.1498 14.0283C55.3835 13.7138 55.6341 13.482 55.8981 13.3251C56.1621 13.1677 56.4906 13.0561 56.8886 12.99C57.2866 12.9196 57.7666 12.8988 58.3246 12.9154C58.8827 12.936 59.5615 12.9651 60.3531 13.0024C60.8416 13.0024 61.2182 13.1016 61.4861 13.296C61.75 13.4904 61.9622 13.7842 62.1266 14.1729C62.3926 14.8303 62.6589 15.4858 62.9255 16.1402Z" fill="black"/>
<path d="M41.0185 64.2144L43.9115 56.7115H44.8488L47.7418 64.2144H46.554L44.3792 58.161L42.2063 64.2144H41.0185ZM42.3518 62.5677V61.5673H46.4785V62.5677H42.3518Z" fill="white"/>
<path d="M51.0638 64.2919C50.5169 64.2919 50.0382 64.1757 49.6294 63.9432C49.2186 63.7107 48.9001 63.3849 48.6736 62.9657C48.4471 62.5465 48.3329 62.0551 48.3329 61.4951V59.4362C48.3329 58.8726 48.4471 58.3812 48.6736 57.9602C48.9001 57.541 49.2186 57.2152 49.6294 56.9828C50.0382 56.7503 50.5169 56.634 51.0638 56.634C51.5169 56.634 51.9312 56.7273 52.3069 56.9123C52.6826 57.099 52.9975 57.3579 53.2516 57.6925C53.5057 58.0254 53.677 58.4164 53.7672 58.8638H52.6383C52.5702 58.6224 52.456 58.4129 52.2959 58.2314C52.1356 58.0501 51.9478 57.9109 51.7323 57.8105C51.5169 57.7119 51.294 57.6608 51.0638 57.6608C50.5814 57.6608 50.1947 57.8247 49.9019 58.1487C49.6072 58.4746 49.4617 58.9025 49.4617 59.4362V61.4951C49.4617 62.0288 49.6072 62.4567 49.9019 62.7808C50.1947 63.1031 50.5814 63.2651 51.0638 63.2651C51.4045 63.2651 51.7269 63.1612 52.0288 62.9552C52.3308 62.749 52.5352 62.4515 52.6383 62.0622H53.7672C53.677 62.5095 53.5039 62.9005 53.2479 63.2334C52.9937 63.5681 52.6789 63.8269 52.3051 64.0136C51.9312 64.1986 51.5169 64.2919 51.0638 64.2919Z" fill="white"/>
<path d="M54.2514 64.2144L57.1445 56.7115H58.0817L60.9748 64.2144H59.787L57.6122 58.161L55.4392 64.2144H54.2514ZM55.5847 62.5677V61.5673H59.7115V62.5677H55.5847Z" fill="white"/>
<path d="M62.9064 64.2144V63.214H64.6817C65.2599 63.214 65.7092 63.0696 66.026 62.7825C66.3446 62.4955 66.5048 62.0903 66.5048 61.5673V59.3586C66.5048 58.8356 66.3446 58.4305 66.026 58.1434C65.7092 57.8563 65.2599 57.7137 64.6817 57.7137H62.9064V56.7115H64.6486C65.5987 56.7115 66.3317 56.9475 66.8528 57.416C67.3721 57.8862 67.6318 58.5467 67.6318 59.4009V61.5268C67.6318 62.0939 67.5157 62.5782 67.2819 62.978C67.048 63.3796 66.7073 63.6861 66.2617 63.8974C65.816 64.1087 65.2765 64.2144 64.643 64.2144H62.9064ZM62.1607 64.2144V56.7115H63.2619V64.2144H62.1607Z" fill="white"/>
<path d="M69.3039 64.2144V56.7115H70.4051V64.2144H69.3039ZM69.8379 64.2144V63.214H74.344V64.2144H69.8379ZM69.8379 60.9896V59.9892H73.7492V60.9896H69.8379ZM69.8379 57.7137V56.7115H74.344V57.7137H69.8379Z" fill="white"/>
<path d="M79.2424 61.6659L81.5461 56.7115H82.5755V64.2144H81.502V58.5961L81.5572 58.9254L79.6255 63.1717H78.8594L76.9277 59.0293L76.9811 58.5961V64.2144H75.9075V56.7115H76.9387L79.2424 61.6659Z" fill="white"/>
<path d="M89.4812 56.7115L87.0928 61.1657V64.2144H85.9916V61.1657L83.6013 56.7115H84.8259L86.5421 60.0966L88.2566 56.7115H89.4812Z" fill="white"/>
</svg>
