<svg width="22" height="22" viewBox="0 0 22 22" fill="none" xmlns="http://www.w3.org/2000/svg">
<path fill-rule="evenodd" clip-rule="evenodd" d="M9.92715 9.93152C10.464 10.8027 11.1974 11.536 12.0685 12.0729L12.8904 11.5798C13.2488 11.3647 13.7032 11.3953 14.0296 11.6564L15.6247 12.9325C15.848 13.1111 15.9841 13.3768 15.9987 13.6623C16.0133 13.9479 15.905 14.226 15.7011 14.4265L14.98 15.1355C13.9867 16.115 12.4495 16.2808 11.2701 15.5358C9.34646 14.2916 7.70851 12.6536 6.4643 10.73C5.71923 9.5506 5.8851 8.01332 6.8646 7.02002L7.5736 6.29891C7.77406 6.09503 8.05221 5.9867 8.33775 6.00131C8.6233 6.01591 8.88894 6.15205 9.06755 6.37532L10.3436 7.97044C10.6048 8.29684 10.6353 8.7512 10.4203 9.10962L9.92715 9.93152Z" stroke="white" stroke-width="1.5" stroke-linecap="round" stroke-linejoin="round"/>
<path fill-rule="evenodd" clip-rule="evenodd" d="M5.86748 18.9865L3.17048 19.4372C3.0023 19.4653 2.83091 19.4104 2.71035 19.2898C2.58978 19.1692 2.53489 18.9978 2.56298 18.8296L3.01358 16.1325C0.381886 12.0424 1.25733 6.62611 5.04355 3.57331C8.82977 0.520515 14.3085 0.813468 17.7476 4.25261C21.1867 7.69175 21.4796 13.1705 18.4267 16.9567C15.3739 20.7428 9.95758 21.6182 5.86748 18.9865Z" stroke="white" stroke-width="1.5" stroke-linecap="round" stroke-linejoin="round"/>
</svg>
