<svg
  xmlns="http://www.w3.org/2000/svg"
  width="32"
  height="32"
  viewBox="0 0 32 32"
  fill="currentColor"
>
  <path d="M16.001 3.077c-7.18 0-13.001 5.821-13.001 13.001 0 2.296.599 4.541 1.737 6.523L3 29l6.567-1.719c1.923 1.057 4.092 1.615 6.434 1.615 7.18 0 13.001-5.821 13.001-13.001s-5.821-12.818-13.001-12.818zm0 23.412c-2.033 0-4.005-.541-5.719-1.574l-.409-.242-3.899 1.021 1.041-3.783-.264-.392c-1.086-1.615-1.658-3.495-1.658-5.442 0-5.524 4.484-10.008 10.008-10.008s10.008 4.484 10.008 10.008c0 5.524-4.484 10.412-10.108 10.412zm5.49-7.57c-.299-.15-1.767-.87-2.041-.967-.273-.101-.473-.15-.673.15s-.773.967-.948 1.166c-.174.199-.348.225-.647.075-.299-.15-1.263-.465-2.405-1.482-.889-.793-1.49-1.771-1.664-2.07-.174-.299-.018-.461.131-.611.136-.135.299-.348.449-.523.149-.174.199-.299.299-.498.1-.199.05-.373-.025-.523-.075-.15-.673-1.62-.922-2.215-.242-.579-.487-.5-.673-.51-.174-.008-.373-.01-.573-.01s-.523.075-.797.373c-.274.299-1.047 1.022-1.047 2.492s1.073 2.887 1.224 3.086c.149.199 2.111 3.23 5.106 4.527.714.308 1.27.492 1.705.63.716.228 1.367.196 1.884.119.574-.086 1.767-.72 2.016-1.416.249-.697.249-1.293.174-1.416-.075-.123-.274-.199-.573-.348z"/>
</svg>
